<svg width="15" height="19" viewBox="0 0 15 19" fill="none" xmlns="http://www.w3.org/2000/svg">
<path d="M7.26264 18.0372L7.26275 18.0373C7.3278 18.101 7.41114 18.1328 7.49761 18.1328C7.58106 18.1328 7.66258 18.103 7.72789 18.0423C8.06939 17.7231 9.7582 16.1137 11.3572 14.043C12.1569 13.0075 12.924 11.8695 13.489 10.7304C14.0571 9.58508 14.4 8.48024 14.4 7.49986L7.26264 18.0372ZM7.26264 18.0372C6.9212 17.703 5.2341 16.0219 3.63662 13.9184C2.83775 12.8665 2.07134 11.7219 1.50694 10.5976C0.93804 9.46428 0.6 8.40139 0.6 7.49966C0.6 3.69572 3.69564 0.6 7.49966 0.6M7.26264 18.0372L7.49966 0.6M7.49966 0.6C11.3035 0.6 14.3989 3.69555 14.4 7.4997L7.49966 0.6Z" fill="#633389" stroke="#633389" stroke-width="1.2"/>
<path d="M9.43217 7.50104V7.50139C9.43217 8.56678 8.56457 9.43481 7.49966 9.43481C6.43451 9.43481 5.56624 8.56654 5.56624 7.50139C5.56624 6.43624 6.43451 5.56796 7.49966 5.56796C8.56585 5.56796 9.43291 6.43527 9.43217 7.50104Z" fill="#F2F2F2" stroke="#F2F2F2"/>
</svg>
