<svg width="20" height="20" viewBox="0 0 20 20" fill="none" xmlns="http://www.w3.org/2000/svg">
<path d="M6.62679 11.5272L6.09098 12.0158C6.01532 12.0849 5.97266 12.1797 5.97266 12.2787V12.4872C5.97266 12.6896 6.14734 12.8537 6.3628 12.8537H9.56228C9.778 12.8537 9.95256 12.6896 9.95256 12.4872V12.2173C9.95256 12.015 9.778 11.8508 9.56228 11.8508H7.79447L7.8432 11.8087C8.99859 10.7629 9.81634 9.93974 9.81634 8.86794C9.81634 8.011 9.22356 7.14632 7.89875 7.14632C7.32042 7.14632 6.75403 7.32072 6.30381 7.63716C6.1576 7.74022 6.10684 7.92488 6.18211 8.08152L6.28052 8.28597C6.32831 8.38541 6.42051 8.45967 6.53263 8.48859C6.64407 8.51751 6.76436 8.49798 6.85946 8.43557C7.14897 8.24564 7.44698 8.14925 7.74553 8.14925C8.32656 8.14925 8.62106 8.42067 8.62106 8.95222C8.6133 9.67257 7.97732 10.3192 6.62679 11.5272Z" fill="#633389"/>
<path d="M12.4583 7.23561C12.4479 7.23472 12.4374 7.23434 12.427 7.23434H12.3078C12.1803 7.23434 12.0609 7.29287 11.988 7.39091L9.59859 10.6036C9.55282 10.6652 9.52832 10.7385 9.52832 10.8135V11.0711C9.52832 11.2735 9.70287 11.4376 9.91832 11.4376H12.1V12.4872C12.1 12.6896 12.2745 12.8537 12.49 12.8537H12.8625C13.0778 12.8537 13.2527 12.6896 13.2527 12.4872V11.4376H13.6373C13.8528 11.4376 14.0275 11.2735 14.0275 11.0711V10.8331C14.0275 10.6308 13.8528 10.4666 13.6373 10.4666H13.2527V7.60088C13.2527 7.39859 13.0778 7.2344 12.8625 7.2344H12.49C12.4793 7.2344 12.4687 7.23478 12.4583 7.23561ZM12.1 10.4666H10.922C11.2212 10.0583 11.7329 9.35764 12.1 8.83978V10.4666Z" fill="#633389"/>
<path d="M10.0145 18.4147C5.42304 18.4147 1.68753 14.9051 1.68753 10.5913C1.68753 6.50657 5.03715 3.14355 9.29104 2.79781V4.04488C9.29104 4.13348 9.34308 4.2149 9.42624 4.2565C9.4639 4.2754 9.50515 4.28466 9.54625 4.28466C9.596 4.28466 9.64575 4.27096 9.68854 4.24388L12.7025 2.3414C12.7731 2.29688 12.8154 2.22224 12.8154 2.14234C12.8154 2.0625 12.7731 1.98779 12.7025 1.94327L9.68854 0.04079C9.61031 -0.00861113 9.5094 -0.0135576 9.42617 0.0282336C9.34301 0.069898 9.29097 0.151324 9.29097 0.239853V1.2072C4.10553 1.55675 0 5.63181 0 10.5913C0 15.7793 4.49257 20 10.0144 20C12.571 20 15.0049 19.095 16.8677 17.4517L15.7127 16.2959C14.1639 17.6622 12.1403 18.4147 10.0145 18.4147Z" fill="#633389"/>
<path d="M18.5619 5.68732C18.2169 5.15741 17.8135 4.65703 17.3632 4.20034L16.125 5.2771C16.4998 5.65715 16.8352 6.07346 17.1224 6.51424L18.5619 5.68732Z" fill="#633389"/>
<path d="M18.2665 9.52816L19.9387 9.31496C19.8494 8.6975 19.694 8.08682 19.4766 7.49985L17.8828 8.02038C18.0633 8.50782 18.1924 9.0151 18.2665 9.52816Z" fill="#633389"/>
<path d="M15.7571 2.88193C15.2141 2.5242 14.6314 2.21654 14.0251 1.96734L13.3486 3.41926C13.8524 3.62637 14.3368 3.88211 14.7882 4.17943L15.7571 2.88193Z" fill="#633389"/>
<path d="M16.4463 15.559L17.7492 16.5661C18.1707 16.0851 18.5423 15.5634 18.8537 15.0154L17.365 14.2692C17.1061 14.7248 16.797 15.1588 16.4463 15.559Z" fill="#633389"/>
<path d="M18.3167 11.1963C18.2748 11.7134 18.1776 12.2274 18.0283 12.7237L19.6521 13.1549C19.8321 12.5573 19.9488 11.939 19.9995 11.3171L18.3167 11.1963Z" fill="#633389"/>
</svg>
